<?xml version="1.0" standalone="no"?>
<!DOCTYPE svg PUBLIC "-//W3C//DTD SVG 20010904//EN"
 "http://www.w3.org/TR/2001/REC-SVG-20010904/DTD/svg10.dtd">
<svg version="1.0" xmlns="http://www.w3.org/2000/svg"
 width="300.000000pt" height="294.000000pt" viewBox="0 0 300.000000 294.000000"
 preserveAspectRatio="xMidYMid meet">
<metadata>
Created by potrace 1.10, written by Peter Selinger 2001-2011
</metadata>
<g transform="translate(0.000000,294.000000) scale(0.100000,-0.100000)" fill="white"
stroke="none">
<!-- <path d="M1280 2655 c-86 -14 -236 -62 -312 -101 -244 -123 -457 -359 -555
-614 -79 -206 -108 -422 -83 -620 10 -81 36 -203 50 -235 5 -11 12 -31 16 -45
3 -14 26 -67 50 -118 122 -264 349 -480 609 -581 141 -55 235 -73 390 -73 406
0 767 224 970 602 125 232 176 531 135 794 -44 287 -201 569 -419 750 -239
199 -554 288 -851 241z m331 -40 c615 -107 1017 -731 894 -1383 -66 -346 -299
-667 -592 -815 -155 -79 -292 -111 -468 -111 -516 0 -933 357 -1061 909 -26
112 -27 386 -1 500 83 362 305 660 602 807 191 94 422 129 626 93z"/> -->
<path d="M1305 2581 c-217 -36 -398 -127 -562 -284 -144 -139 -256 -333 -308
-537 -36 -141 -45 -351 -21 -490 78 -447 380 -788 794 -897 82 -21 119 -25
237 -25 119 0 155 4 240 26 589 154 936 809 757 1426 -100 343 -365 631 -677
735 -133 44 -341 65 -460 46z m273 -41 c404 -61 725 -364 838 -791 26 -95 28
-119 28 -284 0 -155 -3 -192 -22 -265 -74 -275 -208 -479 -417 -634 -266 -197
-647 -238 -946 -103 -216 98 -396 274 -503 492 -96 195 -117 296 -112 540 3
156 7 191 28 265 107 365 327 613 651 735 128 48 312 66 455 45z"/>
<path d="M1330 2491 c-49 -10 -92 -37 -117 -74 -12 -18 -83 -219 -159 -447
-75 -228 -183 -557 -241 -730 -120 -362 -126 -394 -92 -444 13 -19 35 -41 50
-50 39 -23 110 -31 152 -17 69 23 86 56 181 347 312 951 333 1014 346 1014 5
0 81 -222 170 -492 237 -720 261 -787 289 -821 29 -35 77 -57 124 -57 47 0
118 39 145 80 29 43 26 78 -17 206 -16 49 -96 292 -177 539 -306 940 -285 885
-352 930 -34 23 -45 25 -152 24 -63 -1 -131 -4 -150 -8z m303 -65 c30 -30 46
-69 127 -317 51 -156 112 -342 135 -414 202 -615 265 -815 265 -836 0 -57 -59
-99 -138 -99 -88 0 -75 -29 -325 731 -124 376 -229 696 -232 712 -11 44 -21
40 -39 -21 -10 -31 -98 -302 -197 -602 -98 -300 -193 -592 -211 -649 -43 -136
-73 -171 -146 -171 -61 0 -115 28 -132 69 -13 32 -40 -56 331 1071 171 521
164 501 196 524 38 28 74 34 210 35 l122 1 34 -34z"/>
<path d="M1365 1463 c-116 -61 -154 -191 -84 -296 86 -130 286 -111 347 33 31
75 10 171 -50 227 -54 51 -153 68 -213 36z m175 -53 c77 -55 89 -168 25 -239
-81 -89 -214 -71 -266 35 -39 82 -5 184 75 220 45 21 125 13 166 -16z"/>
</g>
</svg>
